<?xml version="1.0" standalone="no"?>
<!DOCTYPE svg PUBLIC "-//W3C//DTD SVG 20010904//EN"
 "http://www.w3.org/TR/2001/REC-SVG-20010904/DTD/svg10.dtd">
<svg version="1.0" xmlns="http://www.w3.org/2000/svg"
 width="260.000000pt" height="260.000000pt" viewBox="0 0 260.000000 260.000000"
 preserveAspectRatio="xMidYMid meet">
<metadata>
Created by potrace 1.14, written by Peter Selinger 2001-2017
</metadata>
<g transform="translate(0.000000,260.000000) scale(0.100000,-0.100000)"
fill="#000000" stroke="none">
<path d="M145 2591 c-64 -16 -114 -67 -135 -137 -8 -28 -10 -348 -8 -1179 l3
-1140 22 -35 c28 -45 68 -75 119 -89 56 -16 2248 -15 2310 0 59 15 117 72 133
130 9 34 11 310 9 1185 l-3 1141 -29 41 c-16 23 -45 52 -65 65 l-36 22 -1145
2 c-630 0 -1159 -2 -1175 -6z"/>
</g>
</svg>
